<svg xmlns="http://www.w3.org/2000/svg" xmlns:xlink="http://www.w3.org/1999/xlink" width="24" height="24" viewBox="0 0 24 24">
  <defs>
    <clipPath id="clip-Artboard_24">
      <rect width="24" height="24"/>
    </clipPath>
  </defs>
  <g id="Artboard_24" data-name="Artboard – 24" clip-path="url(#clip-Artboard_24)">
    <rect width="24" height="24" fill="#FEAE2A"/>
    <path id="Union_1" data-name="Union 1" d="M-4945.321,127q0-.6,0-1.2c0-.2,0-.391,0-.586,0-.742,0-1.483,0-2.225,0-.2,0-.4,0-.593q0-1.109,0-2.22,0-.267,0-.535l-.065-.022a2.4,2.4,0,0,1-1.258-1.005,2.276,2.276,0,0,1-.194-.4,2.36,2.36,0,0,1,.117-1.883,2.4,2.4,0,0,1,1.4-1.165q0-.306,0-.611c0-.2,0-.4,0-.593q0-1.109,0-2.221c0-.184,0-.368,0-.552,0-.061,0-.121,0-.181h1.66c0,.441,0,.882,0,1.322,0,.2,0,.394,0,.591,0,.742,0,1.483,0,2.225v.021a2.806,2.806,0,0,1,.422.18,2.355,2.355,0,0,1,.963.957,2.359,2.359,0,0,1,.117,1.955,2.381,2.381,0,0,1-1.5,1.39c0,.373,0,.746,0,1.119,0,.2,0,.393,0,.589,0,.741,0,1.482,0,2.223,0,.2,0,.392,0,.589,0,.741,0,1.482,0,2.224,0,.175,0,.351,0,.527V127Zm.743-10.4a.865.865,0,0,0-.488.2.782.782,0,0,0-.254.528.906.906,0,0,0,.115.515.9.9,0,0,0,1.181.244.82.82,0,0,0,.011-1.359.938.938,0,0,0-.5-.124Zm-6.253,10.4c0-.41,0-.821,0-1.231v-.529l-.064-.024a2.386,2.386,0,0,1-1.249-.991,2.322,2.322,0,0,1-.205-.421,2.362,2.362,0,0,1,.09-1.822,2.4,2.4,0,0,1,1.428-1.223v-1.21q0-1.109,0-2.218v-.593q0-1.111,0-2.22v-.593q0-1.109,0-2.218c0-.185,0-.37,0-.555V111h1.661v9.733l0,.026a2.872,2.872,0,0,1,.424.18,2.343,2.343,0,0,1,1.064,1.175,2.44,2.44,0,0,1,.13.437,2.352,2.352,0,0,1-.339,1.731,2.421,2.421,0,0,1-1.278.959v1.113c0,.165,0,.329,0,.495V127Zm.747-4.8a.852.852,0,0,0-.485.189.774.774,0,0,0-.261.529.8.8,0,0,0,.334.745.954.954,0,0,0,1.027-.027.825.825,0,0,0-.039-1.3.915.915,0,0,0-.509-.135Zm-6.257,4.8c0-.42,0-.841,0-1.261,0-.2,0-.393,0-.59,0-.741,0-1.481,0-2.222,0-.2,0-.393,0-.59,0-.741,0-1.481,0-2.223,0-.2,0-.394,0-.59,0-.495,0-.989,0-1.483a2.661,2.661,0,0,1-.544-.251,2.5,2.5,0,0,1-.344-.256,2.31,2.31,0,0,1-.7-1.16,2.344,2.344,0,0,1,.335-1.891,2.428,2.428,0,0,1,1.253-.922q0-.941,0-1.882c0-.185,0-.37,0-.554V111h1.661q0,1.28,0,2.559a2.5,2.5,0,0,1,.977.59,2.418,2.418,0,0,1,.285.345,2.347,2.347,0,0,1,.332,1.858,2.308,2.308,0,0,1-.806,1.265,2.547,2.547,0,0,1-.788.424v8.283c0,.177,0,.354,0,.532V127Zm.391-11.9a.75.75,0,0,0-.389.647.811.811,0,0,0,.293.664.913.913,0,0,0,.431.183.9.9,0,0,0,.718-.229.841.841,0,0,0,.215-.661.871.871,0,0,0-.176-.435.861.861,0,0,0-.651-.273A.972.972,0,0,0-4955.95,115.1Z" transform="translate(4962 -107)"/>
  </g>
</svg>
